<?xml version="1.0" encoding="utf-8"?>
<!-- Generator: Adobe Illustrator 16.0.0, SVG Export Plug-In . SVG Version: 6.00 Build 0)  -->
<!DOCTYPE svg PUBLIC "-//W3C//DTD SVG 1.1//EN" "http://www.w3.org/Graphics/SVG/1.1/DTD/svg11.dtd">
<svg version="1.1" xmlns="http://www.w3.org/2000/svg" xmlns:xlink="http://www.w3.org/1999/xlink" x="0px" y="0px"
	 width="841.89px" height="595.281px" viewBox="0 0 841.89 595.281" enable-background="new 0 0 841.89 595.281"
	 xml:space="preserve">
<g id="Layer_1">
	<rect x="-6.555" y="-9.86" width="854" height="611"/>
	<circle fill="#E0A6A6" cx="604.445" cy="184.06" r="104.535"/>
	<g id="BlackBG" display="none">
		<rect y="-3.391" display="inline" stroke="#000000" stroke-miterlimit="10" width="841.89" height="598.672"/>
	</g>
	<g id="Moons" display="none">
		<path display="inline" fill="#FFFFFF" stroke="#000000" stroke-miterlimit="10" d="M783.392,80.338H418.168
			C502.347,261.825,701.261,261.826,783.392,80.338z"/>
		<path display="inline" fill="#7F9FAA" d="M89.083,504.337h495.975C474.169,261.825,205.474,261.825,89.083,504.337z"/>
		<polygon display="inline" fill="#FFFFFF" stroke="#000000" stroke-miterlimit="10" points="602.857,492.949 790.392,80.338 
			797.443,80.338 602.664,504.337 602.664,504.337 407.088,80.338 413.168,80.338 602.468,492.949 		"/>
		<polygon display="inline" fill="#FFFFFF" stroke="#000000" stroke-miterlimit="10" points="340.128,217.33 402.393,80.338 
			402.168,80.338 591.664,493.375 591.664,504.337 591.664,504.337 402.78,94.845 402.779,94.844 340.128,231.218 340.126,231.219 
			275.955,94.844 275.954,94.845 82.479,504.337 82.478,504.337 82.478,493.167 276.581,80.338 276.351,80.338 		"/>
		<path display="inline" fill="#FFFFFF" stroke="#000000" stroke-miterlimit="10" d="M23.024,504.337h562.034
			C459.4,290.31,154.917,290.31,23.024,504.337z"/>
		<circle display="inline" fill="#C6C6C6" cx="603.259" cy="191.543" r="115.547"/>
	</g>
	<path fill="#7F9FAA" d="M99.848,504.337H554.22C452.837,289.872,206.261,289.872,99.848,504.337z"/>
	<g>
		<polygon fill="#DBDBDB" points="604.46,471.531 782.237,80.393 799.288,80.393 604.11,504.392 408.933,80.393 425.012,80.393 		
			"/>
	</g>
	<polygon fill="#FFFFFF" stroke="#FFFFFF" stroke-miterlimit="10" points="266.351,80.338 266.465,80.584 266.581,80.338 	"/>
	<g>
		<polygon fill="#DBDBDB" points="581.664,493.375 392.281,80.584 330.128,217.33 266.465,80.584 66.818,504.337 82.478,504.337 
			82.479,504.337 265.935,116.052 329.741,253.219 392.799,116.566 571.664,504.337 581.664,504.337 587.001,504.337 		"/>
	</g>
	<g id="Layer_14" display="none">
	</g>
	<g id="Layer_9" display="none">
		<path display="inline" fill="#FFFFFF" d="M571.22,80.338H387.938C430.183,171.415,530.003,171.417,571.22,80.338z"/>
		<path display="inline" fill="#FFFFFF" d="M85.793,293.117H334.69C279.042,171.415,144.202,171.415,85.793,293.117z"/>
		<polygon display="inline" fill="#FFFFFF" points="480.623,287.401 574.734,80.338 578.271,80.338 480.525,293.117 
			480.525,293.117 382.379,80.338 385.429,80.338 480.427,287.401 		"/>
		<polygon display="inline" fill="#FFFFFF" points="211.775,149.085 243.022,80.338 242.909,80.338 338.005,287.615 
			338.005,293.117 338.004,293.117 243.216,87.618 243.216,87.618 211.776,156.054 211.775,156.054 179.571,87.618 179.571,87.618 
			82.478,293.117 82.478,293.117 82.478,287.509 179.885,80.338 179.77,80.338 		"/>
	</g>
	<g id="type" display="none">
		<g display="inline">
			<path fill="#FFFFFF" d="M274.685,109.47c0-3.965,0.387-7.723,1.161-11.272c0.774-3.548,1.908-6.654,3.403-9.315
				c1.494-2.662,3.349-4.775,5.563-6.341s4.762-2.349,7.643-2.349c2.88,0,5.428,0.783,7.643,2.349
				c2.214,1.565,4.069,3.679,5.563,6.341s2.628,5.767,3.403,9.315c0.774,3.55,1.162,7.308,1.162,11.272
				c0,3.967-0.388,7.724-1.162,11.272c-0.775,3.55-1.909,6.654-3.403,9.316c-1.495,2.662-3.349,4.763-5.563,6.302
				c-2.215,1.539-4.763,2.309-7.643,2.309c-2.881,0-5.429-0.771-7.643-2.309c-2.215-1.539-4.07-3.64-5.563-6.302
				c-1.495-2.662-2.629-5.766-3.403-9.316C275.071,117.194,274.685,113.437,274.685,109.47z M275.765,109.47
				c0.036,4.02,0.441,7.724,1.215,11.116c0.774,3.393,1.872,6.315,3.295,8.768c1.422,2.454,3.16,4.372,5.212,5.753
				c2.053,1.384,4.375,2.075,6.968,2.075c2.593,0,4.915-0.691,6.968-2.075c2.053-1.382,3.79-3.3,5.212-5.753
				c1.422-2.453,2.521-5.375,3.295-8.768c0.774-3.392,1.179-7.097,1.215-11.116c-0.036-4.018-0.441-7.723-1.215-11.116
				c-0.775-3.392-1.873-6.314-3.295-8.768c-1.423-2.453-3.16-4.371-5.212-5.754c-2.053-1.382-4.375-2.074-6.968-2.074
				c-2.593,0-4.916,0.692-6.968,2.074c-2.052,1.383-3.79,3.301-5.212,5.754c-1.423,2.454-2.521,5.376-3.295,8.768
				C276.206,101.747,275.8,105.452,275.765,109.47z"/>
			<path fill="#FFFFFF" d="M317.313,109.47c0-3.965,0.387-7.723,1.161-11.272c0.774-3.548,1.908-6.654,3.403-9.315
				c1.494-2.662,3.349-4.775,5.563-6.341s4.762-2.349,7.643-2.349c2.88,0,5.428,0.783,7.643,2.349
				c2.214,1.565,4.069,3.679,5.563,6.341s2.628,5.767,3.403,9.315c0.774,3.55,1.162,7.308,1.162,11.272
				c0,3.967-0.388,7.724-1.162,11.272c-0.775,3.55-1.909,6.654-3.403,9.316c-1.495,2.662-3.349,4.763-5.563,6.302
				c-2.215,1.539-4.763,2.309-7.643,2.309c-2.881,0-5.429-0.771-7.643-2.309c-2.215-1.539-4.07-3.64-5.563-6.302
				c-1.495-2.662-2.629-5.766-3.403-9.316C317.7,117.194,317.313,113.437,317.313,109.47z M318.393,109.47
				c0.036,4.02,0.441,7.724,1.215,11.116c0.774,3.393,1.872,6.315,3.295,8.768c1.422,2.454,3.16,4.372,5.212,5.753
				c2.053,1.384,4.375,2.075,6.968,2.075s4.915-0.691,6.968-2.075c2.053-1.382,3.79-3.3,5.212-5.753
				c1.422-2.453,2.52-5.375,3.295-8.768c0.774-3.392,1.179-7.097,1.215-11.116c-0.036-4.018-0.441-7.723-1.215-11.116
				c-0.775-3.392-1.873-6.314-3.295-8.768c-1.423-2.453-3.16-4.371-5.212-5.754c-2.053-1.382-4.375-2.074-6.968-2.074
				s-4.916,0.692-6.968,2.074c-2.052,1.383-3.79,3.301-5.212,5.754c-1.423,2.454-2.521,5.376-3.295,8.768
				C318.834,101.747,318.429,105.452,318.393,109.47z"/>
			<path fill="#FFFFFF" d="M363.025,81.523l26.359,53.937h0.108v-31.157l1.081,2.353v30.762h-1.621L362.593,83.48h-0.108v53.937
				h-1.08V81.523H363.025z"/>
		</g>
		<g display="inline">
			<path fill="#FFFFFF" d="M518.062,237.223l-24.885,55.894h-1.08l24.885-55.894H518.062z"/>
			<path fill="#FFFFFF" d="M529.832,291.551l-0.697,1.565h-25.82l24.889-55.894h25.604l-0.697,1.565h-24.523l-10.875,24.424h23.064
				l-0.697,1.565h-23.064l-11.92,26.773h24.738V291.551z"/>
			<path fill="#FFFFFF" d="M607.3,237.223l-36.066,55.894h-1.459l12.672-53.937h-0.107l-35.143,53.937h-1.457l13.543-55.894h1.08
				l-13.105,53.937h0.109l35.141-53.937h1.566l-12.727,53.937h0.107l34.764-53.937H607.3z"/>
		</g>
	</g>
	<g id="Layer_12" display="none">
		<path display="inline" fill="#FFFFFF" d="M85.793,293.117H334.69C279.042,171.415,144.202,171.415,85.793,293.117z"/>
		<polygon display="inline" fill="#FFFFFF" points="472.623,287.401 566.734,80.338 570.271,80.338 472.525,293.117 
			472.525,293.117 374.379,80.338 377.429,80.338 472.427,287.401 		"/>
		<polygon display="inline" fill="#FFFFFF" points="211.775,149.085 243.022,80.338 242.909,80.338 338.005,287.615 
			338.005,293.117 338.004,293.117 243.216,87.618 243.216,87.618 211.776,156.054 211.775,156.054 179.571,87.618 179.571,87.618 
			82.478,293.117 82.478,293.117 82.478,287.509 179.885,80.338 179.77,80.338 		"/>
		<g display="inline">
			<path fill="#FFFFFF" d="M266.685,109.47c0-3.965,0.387-7.723,1.161-11.272c0.774-3.548,1.908-6.654,3.403-9.315
				c1.494-2.662,3.349-4.775,5.563-6.341s4.762-2.349,7.643-2.349c2.88,0,5.428,0.783,7.643,2.349
				c2.214,1.565,4.069,3.679,5.563,6.341s2.628,5.767,3.403,9.315c0.774,3.55,1.162,7.308,1.162,11.272
				c0,3.967-0.388,7.724-1.162,11.272c-0.775,3.55-1.909,6.654-3.403,9.316c-1.495,2.662-3.349,4.763-5.563,6.302
				c-2.215,1.539-4.763,2.309-7.643,2.309c-2.881,0-5.429-0.771-7.643-2.309c-2.215-1.539-4.07-3.64-5.563-6.302
				c-1.495-2.662-2.629-5.766-3.403-9.316C267.071,117.194,266.685,113.437,266.685,109.47z M267.765,109.47
				c0.036,4.02,0.441,7.724,1.215,11.116c0.774,3.393,1.872,6.315,3.295,8.768c1.422,2.454,3.16,4.372,5.212,5.753
				c2.053,1.384,4.375,2.075,6.968,2.075c2.593,0,4.915-0.691,6.968-2.075c2.053-1.382,3.79-3.3,5.212-5.753
				c1.422-2.453,2.521-5.375,3.295-8.768c0.774-3.392,1.179-7.097,1.215-11.116c-0.036-4.018-0.441-7.723-1.215-11.116
				c-0.775-3.392-1.873-6.314-3.295-8.768c-1.423-2.453-3.16-4.371-5.212-5.754c-2.053-1.382-4.375-2.074-6.968-2.074
				c-2.593,0-4.916,0.692-6.968,2.074c-2.052,1.383-3.79,3.301-5.212,5.754c-1.423,2.454-2.521,5.376-3.295,8.768
				C268.206,101.747,267.8,105.452,267.765,109.47z"/>
			<path fill="#FFFFFF" d="M309.313,109.47c0-3.965,0.387-7.723,1.161-11.272c0.774-3.548,1.908-6.654,3.403-9.315
				c1.494-2.662,3.349-4.775,5.563-6.341s4.762-2.349,7.643-2.349c2.88,0,5.428,0.783,7.643,2.349
				c2.214,1.565,4.069,3.679,5.563,6.341s2.628,5.767,3.403,9.315c0.774,3.55,1.162,7.308,1.162,11.272
				c0,3.967-0.388,7.724-1.162,11.272c-0.775,3.55-1.909,6.654-3.403,9.316c-1.495,2.662-3.349,4.763-5.563,6.302
				c-2.215,1.539-4.763,2.309-7.643,2.309c-2.881,0-5.429-0.771-7.643-2.309c-2.215-1.539-4.07-3.64-5.563-6.302
				c-1.495-2.662-2.629-5.766-3.403-9.316C309.7,117.194,309.313,113.437,309.313,109.47z M310.393,109.47
				c0.036,4.02,0.441,7.724,1.215,11.116c0.774,3.393,1.872,6.315,3.295,8.768c1.422,2.454,3.16,4.372,5.212,5.753
				c2.053,1.384,4.375,2.075,6.968,2.075s4.915-0.691,6.968-2.075c2.053-1.382,3.79-3.3,5.212-5.753
				c1.422-2.453,2.52-5.375,3.295-8.768c0.774-3.392,1.179-7.097,1.215-11.116c-0.036-4.018-0.441-7.723-1.215-11.116
				c-0.775-3.392-1.873-6.314-3.295-8.768c-1.423-2.453-3.16-4.371-5.212-5.754c-2.053-1.382-4.375-2.074-6.968-2.074
				s-4.916,0.692-6.968,2.074c-2.052,1.383-3.79,3.301-5.212,5.754c-1.423,2.454-2.521,5.376-3.295,8.768
				C310.834,101.747,310.429,105.452,310.393,109.47z"/>
			<path fill="#FFFFFF" d="M355.025,81.523l26.359,53.937h0.108v-31.157l1.081,2.353v30.762h-1.621L354.593,83.48h-0.108v53.937
				h-1.08V81.523H355.025z"/>
		</g>
		
			<text transform="matrix(0.69 0 0 1 572.9565 137.4155)" display="inline" fill="#FFFFFF" font-family="'HelveticaNeue-UltraLight'" font-size="78.2825" letter-spacing="4.348">IEW</text>
		<circle display="inline" fill="#FFFFFF" cx="472.591" cy="139.121" r="58.546"/>
	</g>
	<g id="MV1" display="none">
		<polygon display="inline" fill="none" stroke="#000000" stroke-miterlimit="10" points="552.429,383.88 690.392,80.338 
			797.443,80.338 602.664,504.337 602.664,504.337 407.088,80.338 413.168,80.338 		"/>
		<polygon display="inline" fill="none" stroke="#000000" stroke-miterlimit="10" points="340.128,217.33 402.393,80.338 
			402.168,80.338 591.664,493.375 591.664,504.337 591.664,504.337 402.78,94.845 402.779,94.844 340.128,231.218 340.126,231.219 
			322.057,192.817 182.479,504.337 82.478,504.337 82.478,493.167 276.581,80.338 276.351,80.338 		"/>
	</g>
	<g id="MV2" display="none">
		<polygon display="inline" fill="#FFFFFF" stroke="#000000" stroke-miterlimit="10" points="652.431,383.88 790.392,80.338 
			797.443,80.338 602.664,504.337 602.664,504.337 407.088,80.338 513.167,80.338 		"/>
		<polygon display="inline" fill="#FFFFFF" stroke="#000000" stroke-miterlimit="10" points="340.128,231.218 275.955,94.844 
			275.954,94.845 82.479,504.337 82.478,504.337 82.478,493.167 276.581,80.338 276.351,80.338 340.128,217.33 402.393,80.338 
			402.168,80.338 596.914,504.337 491.664,504.337 352.878,203.457 		"/>
	</g>
	<g id="Layer_13" display="none">
		<polygon display="inline" fill="#FFFFFF" stroke="#000000" stroke-miterlimit="10" points="401.5,81.338 345.128,81.338 
			340.128,96.338 335.128,81.338 277,81.338 340,218.5 		"/>
		<line display="inline" fill="none" stroke="#000000" stroke-miterlimit="10" x1="340.128" y1="96.338" x2="340.128" y2="217.33"/>
		<path display="inline" fill="#FFFFFF" stroke="#000000" stroke-miterlimit="10" d="M89.083,504.337h495.975
			C474.169,261.825,205.474,261.825,89.083,504.337z"/>
		<polygon display="inline" fill="#FFFFFF" stroke="#000000" stroke-miterlimit="10" points="340.128,217.33 402.393,80.338 
			402.168,80.338 591.664,493.375 591.664,504.337 591.664,504.337 402.78,94.845 402.779,94.844 340.128,231.218 340.126,231.219 
			275.955,94.844 275.954,94.845 82.479,504.337 82.478,504.337 82.478,493.167 276.581,80.338 276.351,80.338 		"/>
		<circle display="inline" fill="#FFFFFF" stroke="#000000" stroke-miterlimit="10" cx="338.369" cy="356.576" r="126.37"/>
	</g>
	<g id="V2" display="none">
		<polygon display="inline" fill="#FFFFFF" stroke="#000000" stroke-miterlimit="10" points="652.431,383.88 790.392,80.338 
			797.443,80.338 602.664,504.337 602.664,504.337 407.088,80.338 513.167,80.338 		"/>
	</g>
	<g id="M3" display="none">
		<polygon display="inline" fill="#FFFFFF" stroke="#000000" stroke-miterlimit="10" points="340.128,231.218 275.955,94.844 
			275.954,94.845 82.479,504.337 82.478,504.337 82.478,493.167 276.581,80.338 276.351,80.338 340.128,217.33 402.393,80.338 
			402.168,80.338 596.914,504.337 491.664,504.337 352.878,203.457 		"/>
	</g>
	<g id="M2" display="none">
		<line display="inline" fill="none" stroke="#000000" stroke-miterlimit="10" x1="413.168" y1="80.338" x2="413.168" y2="138"/>
		<polygon display="inline" fill="#FFFFFF" stroke="#FFFFFF" stroke-miterlimit="10" points="340.128,217.33 402.393,80.338 
			591.664,493.375 591.664,504.337 591.664,504.337 402.78,94.845 402.779,94.844 340.128,231.218 275.955,94.844 275.954,94.845 
			82.479,504.337 82.478,504.337 82.478,493.167 276.581,80.338 		"/>
	</g>
	<g id="M1" display="none">
		<polygon display="inline" fill="#FFFFFF" stroke="#000000" stroke-miterlimit="10" points="308.512,286.89 402.393,80.338 
			402.168,80.338 591.664,493.375 591.664,504.337 591.664,504.337 402.78,94.845 402.779,94.844 308.51,300.041 308.51,300.041 
			211.955,94.844 211.954,94.845 18.479,504.337 18.478,504.337 18.478,493.167 212.581,80.338 212.351,80.338 		"/>
	</g>
	<g id="V1" display="none">
		<polygon display="inline" fill="#FFFFFF" stroke="#FFFFFF" stroke-miterlimit="10" points="602.857,492.949 790.392,80.338 
			797.443,80.338 602.664,504.337 602.664,504.337 407.088,80.338 413.168,80.338 602.468,492.949 		"/>
	</g>
</g>
<g id="Layer_2">
</g>
</svg>
